<svg
	width="4.25em"
	height="4.25em"
	viewBox="15 0 500 500"
	fill="none"
	xmlns="http://www.w3.org/2000/svg"
>
	<style>
		.mad-logo__fill {
			fill: #f0f1f3;
		}

		.mad-logo__stroke {
			stroke: #f0f1f3;
			stroke-width: 6.5px;
		}
	</style>

	<path fill-rule="evenodd" clip-rule="evenodd" d="M214.189 32.9995V74.437L250.073 53.7637L214.189 32.9995ZM393.035 136.423L321.453 95.0637V136.423L357.284 157.051V198.463L393.035 218.903V136.423ZM249.846 219.072L71.0046 115.902V198.346L70.9266 198.301V280.926L35.2852 260.592V384.265L70.9266 404.82V322.045L107.114 342.794V384.265L178.486 425.462V466.731L214.067 487.366V363.459L178.534 342.794V260.592L71.157 198.435L106.788 177.621L214.517 239.659V322.332L249.624 342.699V466.507L285.666 487.276V281.165L249.846 259.894V219.072ZM142.114 280.926L107.114 260.592V301.895L142.114 322.045V280.926ZM250.021 136.489L285.64 157.093V198.238L250.021 177.761V136.489ZM214.189 115.875V74.4371L250.073 95.2013L214.189 115.875ZM323.124 302.769L359.947 281.519V323.99L396.646 302.813V345.399L359.823 324.062L359.847 324.048L323.124 302.769ZM323.178 345.128L359.83 366.29V408.508L323.178 387.412V345.128Z" class="mad-logo__fill" />
	<path d="M214.217 74.3691L250.061 95.0963L214.217 115.788L178.374 95.1383L142.615 115.746L106.75 94.9982L70.923 115.899V239.738L35.25 260.312V384.231L71.092 404.959L106.935 384.241L178.387 425.597V466.889L214.192 487.557L250.017 466.889L285.813 487.531L393.106 425.57V384.313L428.84 363.579V322.278L464.661 301.658V260.35L428.84 239.691V115.788L250.061 12.5459L214.217 33.1299V115.275" class="mad-logo__stroke" />
	<path d="M71.2227 404.733V322.327L106.846 342.808V384.784" class="mad-logo__stroke" />
	<path d="M35.0742 260.449L70.8969 280.864V240.099" class="mad-logo__stroke" />
	<path d="M142.069 280.878L107.145 260.585V302.024L142.069 322.019V280.878Z" class="mad-logo__stroke" />
	<path d="M71.1328 198.27L106.759 177.705L214.218 239.567V322.277L249.829 342.855V467.26" class="mad-logo__stroke" />
	<path d="M393.174 218.968L178.238 343.05" class="mad-logo__stroke" />
	<path d="M250.089 342.885L213.789 363.843" class="mad-logo__stroke" />
	<path d="M213.949 487.368V363.485L178.496 342.837V260.433L71.1328 198.606" class="mad-logo__stroke" />
	<path d="M71.3945 115.956L249.879 219.067V259.894L285.676 281.177V486.327" class="mad-logo__stroke" />
	<path d="M107.832 301.086L428.291 116.039" class="mad-logo__stroke" />
	<path d="M214.336 33.1813L249.959 53.8033L214.659 74.0991" class="mad-logo__stroke" />
	<path d="M464.132 260.577L428.698 281.009V239.707L393.055 260.33V136.433L321.432 95.0801L285.672 115.793L357.333 157.026V198.37" class="mad-logo__stroke" />
	<path d="M428.391 239.447L321.512 177.705V96.4232" class="mad-logo__stroke" />
	<path d="M321.376 136.444L285.704 157.095L249.867 136.411L214.125 157.095L285.231 198.016" class="mad-logo__stroke" />
	<path d="M250.008 136.845V177.154M285.723 156.846V239.692L251.258 259.565" class="mad-logo__stroke" />
	<path d="M323.125 302.805V429.606L359.935 408.488V366.209L396.374 345.153V302.789L359.841 323.996V281.593L323.125 302.805Z" class="mad-logo__stroke" />
	<path d="M323.586 387.767L359.184 408.147" class="mad-logo__stroke" />
	<path d="M323.777 303.24L395.722 344.846" class="mad-logo__stroke" />
	<path d="M323.738 345.463L359.976 366.361" class="mad-logo__stroke" />
	<path d="M323.324 345.153L373.974 315.793" class="mad-logo__stroke" />
</svg>